<svg width="9" height="6" viewBox="0 0 9 6" fill="none" xmlns="http://www.w3.org/2000/svg">
<path d="M7.42326 2.49179C7.87518 2.45451 8.18173 2.24906 8.2997 1.9703C8.13668 2.07044 7.63064 2.17962 7.35116 2.07564C7.33747 2.00998 7.32217 1.94761 7.30714 1.8913C7.09419 1.10937 6.36508 0.479414 5.60111 0.555516C5.66292 0.53056 5.72561 0.507325 5.78812 0.486466C5.87221 0.456347 6.36559 0.376074 6.28789 0.201926C6.22242 0.04875 5.61962 0.317688 5.50612 0.352839C5.65595 0.296493 5.90373 0.199569 5.93028 0.0274048C5.70073 0.0588894 5.4754 0.167411 5.30129 0.325208C5.36414 0.257544 5.41183 0.175081 5.42195 0.0863332C4.80972 0.477449 4.45209 1.26597 4.16266 2.03086C3.9354 1.81062 3.73398 1.63718 3.55328 1.54087C3.04636 1.26904 2.44025 0.985412 1.48879 0.632216C1.45959 0.947006 1.64448 1.36557 2.17724 1.64391C2.06181 1.62846 1.85073 1.66294 1.68191 1.70337C1.75066 2.06399 1.97519 2.3611 2.58304 2.50477C2.30525 2.52311 2.16169 2.58632 2.03158 2.72257C2.1581 2.97338 2.46683 3.26856 3.02221 3.20797C2.40474 3.4741 2.77044 3.96695 3.27287 3.89344C2.41576 4.77874 1.06443 4.71367 0.288452 3.97321C2.31448 6.73391 6.71858 5.60589 7.3749 2.94681C7.86663 2.951 8.1557 2.77648 8.33494 2.58407C8.05163 2.63215 7.641 2.58247 7.42326 2.49179Z" fill="#8B7EAC" fill-opacity="0.65"/>
</svg>
