<svg width="8" height="5" viewBox="0 0 8 5" fill="none" xmlns="http://www.w3.org/2000/svg">
<path d="M7.35912 4.36695C7.34048 4.33329 7.22519 4.06309 6.6704 3.50774C6.08961 2.92621 6.16762 3.02064 6.86718 2.01512C7.29324 1.40274 7.46358 1.02877 7.41026 0.868892C7.35955 0.716497 7.04618 0.756699 7.04618 0.756699L6.00422 0.763244C6.00422 0.763244 5.92707 0.752025 5.86942 0.788955C5.81351 0.825417 5.77754 0.909561 5.77754 0.909561C5.77754 0.909561 5.6124 1.38357 5.39222 1.78653C4.92802 2.63685 4.74208 2.68173 4.66623 2.62891C4.48982 2.50596 4.53403 2.13433 4.53403 1.87067C4.53403 1.04653 4.64976 0.702941 4.30821 0.614122C4.19465 0.584671 4.11144 0.565038 3.82147 0.561766C3.44959 0.557558 3.13449 0.563168 2.95635 0.657129C2.83759 0.719769 2.74613 0.859542 2.80205 0.867489C2.87096 0.877306 3.027 0.912833 3.10978 1.03437C3.21684 1.19098 3.21294 1.54345 3.21294 1.54345C3.21294 1.54345 3.27448 2.51344 3.06947 2.63405C2.92861 2.71679 2.73573 2.54803 2.32181 1.77625C2.10986 1.38124 1.94949 0.944154 1.94949 0.944154C1.94949 0.944154 1.91872 0.862814 1.86367 0.81934C1.79692 0.766516 1.7033 0.749687 1.7033 0.749687L0.712486 0.756232C0.712486 0.756232 0.563819 0.760907 0.509207 0.830559C0.460663 0.892732 0.505306 1.02082 0.505306 1.02082C0.505306 1.02082 1.28114 2.9781 2.15927 3.96493C2.96502 4.86948 3.87955 4.81011 3.87955 4.81011H4.29391C4.29391 4.81011 4.41917 4.79515 4.48288 4.72082C4.54183 4.65257 4.53966 4.52449 4.53966 4.52449C4.53966 4.52449 4.53143 3.92472 4.78975 3.83637C5.04418 3.74942 5.37098 4.41603 5.71729 4.67267C5.97908 4.86667 6.17803 4.82413 6.17803 4.82413L7.10426 4.81011C7.10426 4.81011 7.58884 4.77785 7.35912 4.36695Z" fill="#8B7EAC" fill-opacity="0.65"/>
</svg>
